<?xml version="1.0" encoding="UTF-8"?>
<svg width="300" height="200" viewBox="0 0 300 200" fill="none" xmlns="http://www.w3.org/2000/svg">
    <!-- Background with subtle gradient -->
    <rect width="300" height="200" rx="10" fill="url(#paint0_linear)"/>
    
    <!-- Central circular path representing lifecycle -->
    <path d="M150 40C188.137 40 220 71.8629 220 110C220 148.137 188.137 180 150 180C111.863 180 80 148.137 80 110C80 71.8629 111.863 40 150 40" 
          stroke="url(#paint1_linear)" stroke-width="4" stroke-linecap="round"/>
    
    <!-- Resource nodes -->
    <g>
        <!-- Node 1: Create -->
        <circle cx="150" cy="40" r="16" fill="url(#paint2_linear)"/>
        <path d="M150 34V46M144 40H156" stroke="white" stroke-width="2.5" stroke-linecap="round"/>
        
        <!-- Node 2: Configure -->
        <circle cx="220" cy="110" r="16" fill="url(#paint2_linear)"/>
        <path d="M220 104V116M214 110H226" stroke="white" stroke-width="2.5" stroke-linecap="round"/>
        <path d="M216 106L224 114M216 114L224 106" stroke="white" stroke-width="2.5" stroke-linecap="round"/>
        
        <!-- Node 3: Monitor -->
        <circle cx="150" cy="180" r="16" fill="url(#paint2_linear)"/>
        <path d="M144 180H156M150 174V186" stroke="white" stroke-width="2.5" stroke-linecap="round"/>
        <circle cx="150" cy="180" r="8" stroke="white" stroke-width="2.5"/>
        
        <!-- Node 4: Update -->
        <circle cx="80" cy="110" r="16" fill="url(#paint2_linear)"/>
        <path d="M74 110C74 106.791 76.7909 104 80 104C83.2091 104 86 106.791 86 110C86 113.209 83.2091 116 80 116" 
              stroke="white" stroke-width="2.5" stroke-linecap="round"/>
        <path d="M74 108.5L74 111.5L77 110L74 108.5" fill="white"/>
    </g>
    
    <!-- Connecting lines -->
    <g stroke="url(#paint3_linear)" stroke-width="2">
        <line x1="150" y1="56" x2="150" y2="164" opacity="0.6"/>
        <line x1="96" y1="110" x2="204" y2="110" opacity="0.6"/>
    </g>
    
    <!-- Gradients definitions -->
    <defs>
        <linearGradient id="paint0_linear" x1="0" y1="0" x2="300" y2="200" gradientUnits="userSpaceOnUse">
            <stop offset="0" stop-color="#F8FAFF"/>
            <stop offset="1" stop-color="#EEF2FF"/>
        </linearGradient>
        
        <linearGradient id="paint1_linear" x1="80" y1="40" x2="220" y2="180" gradientUnits="userSpaceOnUse">
            <stop offset="0" stop-color="#2563EB"/>
            <stop offset="1" stop-color="#06B6D4"/>
        </linearGradient>
        
        <linearGradient id="paint2_linear" x1="0" y1="0" x2="32" y2="32" gradientUnits="userSpaceOnUse">
            <stop offset="0" stop-color="#2563EB"/>
            <stop offset="1" stop-color="#06B6D4"/>
        </linearGradient>
        
        <linearGradient id="paint3_linear" x1="80" y1="40" x2="220" y2="180" gradientUnits="userSpaceOnUse">
            <stop offset="0" stop-color="#2563EB"/>
            <stop offset="1" stop-color="#06B6D4"/>
        </linearGradient>
    </defs>
</svg>
