<?xml version="1.0" encoding="UTF-8"?>
<svg width="300" height="200" viewBox="0 0 300 200" fill="none" xmlns="http://www.w3.org/2000/svg">
    <!-- Background with vibrant gradient -->
    <rect width="300" height="200" rx="10" fill="url(#paint0_linear)"/>
    
    <!-- Central Platform with colorful glow -->
    <circle cx="150" cy="100" r="42" fill="url(#paint_glow)" opacity="0.2"/>
    <circle cx="150" cy="100" r="40" fill="url(#paint1_linear)" fill-opacity="0.15" stroke="url(#paint1_linear)" stroke-width="2"/>
    
    <!-- Platform Icon -->
    <g transform="translate(120, 70)">
        <!-- Base Layer -->
        <rect x="0" y="40" width="60" height="8" rx="2" fill="url(#paint2_linear)"/>
        
        <!-- Middle Layer - Infrastructure -->
        <g transform="translate(5, 20)">
            <!-- Server Racks -->
            <rect x="0" y="0" width="10" height="16" rx="1" fill="url(#paint2_linear)"/>
            <rect x="15" y="0" width="10" height="16" rx="1" fill="url(#paint2_linear)"/>
            <rect x="30" y="0" width="10" height="16" rx="1" fill="url(#paint2_linear)"/>
            <rect x="45" y="0" width="10" height="16" rx="1" fill="url(#paint2_linear)"/>
            
            <!-- Server Details -->
            <rect x="2" y="3" width="6" height="2" fill="white" opacity="0.6"/>
            <rect x="17" y="3" width="6" height="2" fill="white" opacity="0.6"/>
            <rect x="32" y="3" width="6" height="2" fill="white" opacity="0.6"/>
            <rect x="47" y="3" width="6" height="2" fill="white" opacity="0.6"/>
            
            <rect x="2" y="7" width="6" height="2" fill="white" opacity="0.6"/>
            <rect x="17" y="7" width="6" height="2" fill="white" opacity="0.6"/>
            <rect x="32" y="7" width="6" height="2" fill="white" opacity="0.6"/>
            <rect x="47" y="7" width="6" height="2" fill="white" opacity="0.6"/>
        </g>
        
        <!-- Top Layer - Dynamic Config -->
        <g transform="translate(10, 5)">
            <!-- Config Files -->
            <path d="M0 0h40v12h-40z" fill="url(#paint2_linear)"/>
            <path d="M5 4h30" stroke="white" stroke-width="1.5" opacity="0.6"/>
            <path d="M5 8h20" stroke="white" stroke-width="1.5" opacity="0.6"/>
            
            <!-- Dynamic Indicator -->
            <circle cx="35" cy="6" r="4" fill="#60A5FA"/>
            <path d="M33 6h4M35 4v4" stroke="white" stroke-width="1.5"/>
        </g>
    </g>

    <!-- Developer -->
    <g transform="translate(40, 60)">
        <circle cx="0" cy="0" r="22" fill="url(#paint_dev)"/>
        <!-- Head -->
        <circle cx="0" cy="-8" r="6" fill="white"/>
        <!-- Body -->
        <path d="M-8 2C-8 -4 0 -2 0 -2C0 -2 8 -4 8 2" fill="white"/>
        <!-- Code Symbol -->
        <path d="M-6 6L-2 10L2 6" stroke="#2563EB" stroke-width="2" stroke-linecap="round"/>
        <circle cx="0" cy="8" r="4" fill="#2563EB"/>
    </g>

    <!-- Platform Engineer -->
    <g transform="translate(260, 60)">
        <circle cx="0" cy="0" r="22" fill="url(#paint_eng)"/>
        <!-- Head -->
        <circle cx="0" cy="-8" r="6" fill="white"/>
        <!-- Body -->
        <path d="M-8 2C-8 -4 0 -2 0 -2C0 -2 8 -4 8 2" fill="white"/>
        <!-- Gear -->
        <circle cx="0" cy="8" r="5" stroke="#06B6D4" stroke-width="2"/>
        <path d="M0 3L0 13M-5 8L5 8" stroke="#06B6D4" stroke-width="2"/>
    </g>

    <!-- Operations -->
    <g transform="translate(40, 140)">
        <circle cx="0" cy="0" r="22" fill="url(#paint_ops)"/>
        <!-- Head -->
        <circle cx="0" cy="-8" r="6" fill="white"/>
        <!-- Body -->
        <path d="M-8 2C-8 -4 0 -2 0 -2C0 -2 8 -4 8 2" fill="white"/>
        <!-- Monitor -->
        <rect x="-6" y="4" width="12" height="8" rx="1" fill="#8B5CF6"/>
        <path d="M-3 8L3 8" stroke="white" stroke-width="1.5"/>
    </g>

    <!-- Security -->
    <g transform="translate(260, 140)">
        <circle cx="0" cy="0" r="22" fill="url(#paint_sec)"/>
        <!-- Head -->
        <circle cx="0" cy="-8" r="6" fill="white"/>
        <!-- Body -->
        <path d="M-8 2C-8 -4 0 -2 0 -2C0 -2 8 -4 8 2" fill="white"/>
        <!-- Shield -->
        <path d="M0 4L-6 8L0 12L6 8Z" fill="#EC4899"/>
    </g>

    <!-- Connection Lines with Gradient Flow -->
    <g>
        <!-- Glowing Lines -->
        <path d="M60 60L130 100" stroke="url(#paint_flow)" stroke-width="3" opacity="0.6"/>
        <path d="M60 140L130 100" stroke="url(#paint_flow)" stroke-width="3" opacity="0.6"/>
        <path d="M170 100L240 60" stroke="url(#paint_flow)" stroke-width="3" opacity="0.6"/>
        <path d="M170 100L240 140" stroke="url(#paint_flow)" stroke-width="3" opacity="0.6"/>
        <!-- Flow Indicators -->
        <circle cx="95" cy="80" r="3" fill="#2563EB"/>
        <circle cx="95" cy="120" r="3" fill="#8B5CF6"/>
        <circle cx="205" cy="80" r="3" fill="#06B6D4"/>
        <circle cx="205" cy="120" r="3" fill="#EC4899"/>
    </g>

    <!-- Gradients -->
    <defs>
        <linearGradient id="paint0_linear" x1="0" y1="0" x2="300" y2="200">
            <stop offset="0" stop-color="#F0F7FF"/>
            <stop offset="1" stop-color="#E0F2FE"/>
        </linearGradient>
        
        <radialGradient id="paint_glow" cx="0.5" cy="0.5" r="0.5">
            <stop offset="0" stop-color="#60A5FA" stop-opacity="0.4"/>
            <stop offset="1" stop-color="#3B82F6" stop-opacity="0"/>
        </radialGradient>

        <linearGradient id="paint1_linear" x1="80" y1="40" x2="220" y2="180">
            <stop offset="0" stop-color="#2563EB"/>
            <stop offset="1" stop-color="#06B6D4"/>
        </linearGradient>

        <linearGradient id="paint2_linear" x1="0" y1="0" x2="40" y2="40">
            <stop offset="0" stop-color="#3B82F6"/>
            <stop offset="1" stop-color="#0EA5E9"/>
        </linearGradient>

        <linearGradient id="paint_dev" x1="-22" y1="-22" x2="22" y2="22">
            <stop offset="0" stop-color="#2563EB"/>
            <stop offset="1" stop-color="#1D4ED8"/>
        </linearGradient>

        <linearGradient id="paint_eng" x1="-22" y1="-22" x2="22" y2="22">
            <stop offset="0" stop-color="#06B6D4"/>
            <stop offset="1" stop-color="#0891B2"/>
        </linearGradient>

        <linearGradient id="paint_ops" x1="-22" y1="-22" x2="22" y2="22">
            <stop offset="0" stop-color="#8B5CF6"/>
            <stop offset="1" stop-color="#7C3AED"/>
        </linearGradient>

        <linearGradient id="paint_sec" x1="-22" y1="-22" x2="22" y2="22">
            <stop offset="0" stop-color="#EC4899"/>
            <stop offset="1" stop-color="#DB2777"/>
        </linearGradient>

        <linearGradient id="paint_flow" x1="0" y1="0" x2="100" y2="100">
            <stop offset="0" stop-color="#60A5FA"/>
            <stop offset="1" stop-color="#3B82F6"/>
        </linearGradient>
    </defs>
</svg>
